<svg width="152" height="56" viewBox="0 0 152 56" fill="none" xmlns="http://www.w3.org/2000/svg">
<path d="M16.35 29.3876C15.5531 29.6969 14.6531 29.3594 14.2593 28.6001L6.94684 14.5188C6.09371 12.8501 6.74059 10.8157 8.40934 9.96257C8.51246 9.9157 8.60621 9.86882 8.70934 9.82195C10.5937 9.06257 12.6656 10.1688 13.1906 12.0813L13.2 12.1094L17.3531 27.4001C17.5687 28.2157 17.1375 29.0782 16.35 29.3876V29.3876Z" fill="#F98500"/>
<path d="M15.9562 22.2906L13.8843 23.1063C13.5 23.2469 13.0687 23.0594 12.9093 22.675C12.7593 22.2906 12.9468 21.85 13.3312 21.7L15.5531 20.8281L15.9562 22.2906Z" fill="#FA6D00"/>
<path d="M16.7624 25.2251L14.9812 25.8907C14.5968 26.0219 14.1749 25.8438 14.0062 25.4594C13.8562 25.0751 14.0437 24.6344 14.4374 24.4844L16.3687 23.7626L16.7624 25.2251Z" fill="#FA6D00"/>
<path d="M25.1719 15.6157C24.5437 15.1844 24.225 14.4251 24.3656 13.6657C24.7125 11.922 23.5875 10.2251 21.8344 9.86883C21.8156 9.86883 21.7875 9.85945 21.7687 9.85945C21.0469 9.73758 20.4469 9.22195 20.2219 8.51883C20.1656 8.35008 20.1 8.18133 20.025 8.02195C19.2281 6.4282 17.2969 5.78133 15.7031 6.5782C14.1937 7.3282 13.5187 9.11883 14.1562 10.6751C14.4844 11.4813 14.6437 12.2126 14.0906 12.9907C13.0594 14.4438 13.4062 16.4594 14.8594 17.4813C14.8687 17.4907 14.8875 17.5001 14.8969 17.5094C15.525 17.9501 15.825 18.7188 15.675 19.4688C15.3375 21.2126 16.4812 22.9094 18.2344 23.2469C19.8094 23.5469 21.3562 22.6563 21.8906 21.1469C23.4844 21.9438 25.4156 21.2876 26.2125 19.7032C26.925 18.2688 26.4844 16.5344 25.1719 15.6157Z" fill="#598C44"/>
<path d="M32.4844 18.1938C32.0625 17.5563 32.0531 16.7313 32.4656 16.0844C33.45 14.6031 33.0375 12.5969 31.5563 11.6125C31.5375 11.6031 31.5188 11.5844 31.5 11.575C30.5813 10.9938 30.6469 10.1688 30.5719 9.22189C30.4406 7.45002 28.8844 6.11877 27.1125 6.25002C25.4344 6.38127 24.1313 7.77814 24.1313 9.46564C24.1313 10.3375 24 11.0688 23.2031 11.5844C21.7031 12.5406 21.2625 14.5375 22.2281 16.0375C22.2375 16.0469 22.2469 16.0656 22.2563 16.075C22.6688 16.7219 22.6688 17.5469 22.2375 18.1844C21.2719 19.675 21.6938 21.6719 23.1844 22.6469C24.525 23.5188 26.3063 23.275 27.3563 22.075C28.5375 23.4063 30.5719 23.5375 31.9031 22.3656C33.1031 21.3156 33.3469 19.5344 32.4844 18.1938V18.1938Z" fill="#5F9548"/>
<path d="M37.5 27.25L28.5 24.25L33.4594 9.3813C34.0594 7.59068 35.8875 6.20318 37.7906 6.25005C38.9719 6.27818 40.0781 6.50318 41.0062 7.25318C42.5062 8.45318 43.0969 10.4594 42.4875 12.2782L37.5 27.25Z" fill="#FFB531"/>
<path d="M31.5 19.75V46.75H9V19.75L11.25 21.25L13.5 19.75L15.75 21.25L18 19.75L20.25 21.25L22.5 19.75L24.75 21.25L27 19.75L29.25 21.25L31.5 19.75Z" fill="#FFB531"/>
<path d="M31.5 25.9657V46.7501H9V42.2032C17.2594 39.4282 25.4438 34.3751 31.5 25.9657Z" fill="#FCAC1F"/>
<path d="M40.5 19.75V46.75H31.5V19.75L33.75 21.25L36 19.75L38.25 21.25L40.5 19.75Z" fill="#F98500"/>
<path d="M9.14062 49.75C12.4543 49.75 15.1406 47.0637 15.1406 43.75C15.1406 40.4363 12.4543 37.75 9.14062 37.75C5.82692 37.75 3.14062 40.4363 3.14062 43.75C3.14062 47.0637 5.82692 49.75 9.14062 49.75Z" fill="#F35244"/>
<path d="M21.75 34L22.5 35.5C21.5719 36.4281 21.1969 37.7781 21.5156 39.0625L21.75 40H18.75V38.8562C18.75 36.8031 19.9125 34.9188 21.75 34Z" fill="#5F9548"/>
<path d="M17.3531 49.75C16.4062 49.75 15.5625 49.1313 15.2906 48.2219L13.6031 42.5875C13.1343 41.0219 14.1656 39.25 15.9 39.25C16.7437 39.25 17.5218 39.6906 17.9531 40.4125L19.5 43V47.6031C19.5 48.7844 18.5344 49.75 17.3531 49.75V49.75Z" fill="#FA9F0C"/>
<path d="M23.1469 49.75C24.0937 49.75 24.9375 49.1313 25.2094 48.2219L26.8969 42.5875C27.375 41.0031 26.325 39.25 24.6 39.25C23.7562 39.25 22.9781 39.6906 22.5469 40.4125L21 43V47.6031C21 48.7844 21.9656 49.75 23.1469 49.75V49.75Z" fill="#FA9F0C"/>
<path d="M20.25 39.25C21.4969 39.25 22.5 40.2531 22.5 41.5V47.5C22.5 48.7469 21.4969 49.75 20.25 49.75C19.0031 49.75 18 48.7469 18 47.5V41.5C18 40.2531 19.0031 39.25 20.25 39.25Z" fill="#FFB531"/>
<path d="M41.475 6.67192C40.0875 5.5563 38.1844 5.2188 36.375 5.7438C34.6125 6.25942 33.2906 7.5063 32.7469 9.14692L29.7187 18.2407L29.3625 17.7157L28.1062 18.55V15.5219L30.1875 14.1344L29.3531 12.8875L28.0969 13.7219V10.2813H26.5969V13.7125L25.35 12.8782L24.5156 14.125L26.5969 15.5125V18.5407L25.35 17.7063L24.5156 18.9532L25.6687 19.7219L24.7406 20.3407L22.9031 19.1219C22.8187 19.0657 22.7344 19.0282 22.6406 19.0094C22.6969 18.8688 22.7719 18.7282 22.8562 18.5969C23.4375 17.7063 23.4375 16.5625 22.8656 15.6625C22.3406 14.8657 22.3594 13.675 22.9031 12.8782C23.1375 12.5407 24.0937 11.8563 24.3469 11.5188C24.8437 10.8625 24.9 10.1125 24.9562 9.4563C24.9937 8.94067 25.0312 8.49067 25.2562 8.1438C25.9781 6.99067 27.5062 6.6438 28.6594 7.36567C28.9031 7.51567 29.1094 7.71255 29.2875 7.92817C29.6906 8.43442 29.7281 8.94067 29.775 9.62505C29.7937 9.85942 29.8125 10.1125 29.8406 10.375L31.3312 10.1875C31.3031 9.96255 31.2844 9.73755 31.275 9.52192C31.2187 8.7063 31.1531 7.87192 30.4687 7.00005C29.1094 5.27505 26.6156 4.98442 24.8906 6.33442C24.5344 6.61567 24.225 6.95317 23.9812 7.33755C23.5687 7.9938 23.5125 8.7063 23.4562 9.32505C23.4469 9.46567 23.4375 9.59692 23.4187 9.72817C22.9594 9.4188 22.4344 9.20317 21.8812 9.10005C21.4312 9.02505 21.0562 8.7063 20.9156 8.27505C20.5875 7.25317 19.875 6.40942 18.9187 5.92192C17.9812 5.42505 16.8844 5.3313 15.8719 5.65942C14.3812 6.1563 13.2937 7.55317 13.1625 9.1563C13.1156 9.76567 13.2656 10.3 13.4156 10.7782C12.7125 9.62505 11.4844 8.8938 10.1344 8.80942L10.1625 5.4813L8.66249 5.47192L8.64374 7.63755L7.74374 5.3313L6.37499 5.90317L7.27499 8.20942L5.79374 6.63442L4.70624 7.6563L6.98436 10.0938C5.74686 11.3688 5.45624 13.2813 6.28124 14.8563L7.83749 17.8563L9.16874 17.1625L7.61249 14.1625C6.94686 12.8782 7.44374 11.2938 8.72811 10.6282C10.0125 9.96255 11.5969 10.4594 12.2625 11.7438C12.3469 11.9125 12.4125 12.0813 12.4687 12.2688L12.4969 12.3625L10.0781 13.3094L10.6219 14.7063L12.8906 13.825V13.8344C12.75 14.3688 12.7125 14.9219 12.8062 15.475L11.175 16.1125L11.7187 17.5094L13.3312 16.8813C13.7062 17.5094 14.3531 18.0907 14.3531 18.0907L12.2625 18.9063L12.5062 19.5157L11.2594 20.35L9.42186 19.1313C9.07499 18.8969 8.61561 18.9907 8.38124 19.3375C8.29686 19.4594 8.25936 19.6094 8.25936 19.75V35.5H9.75936V21.1469L10.8469 21.8688C11.1 22.0375 11.4281 22.0375 11.6812 21.8688L13.5187 20.65L15.3562 21.8688C15.6094 22.0375 15.9375 22.0375 16.1906 21.8688L18.0281 20.65L19.8656 21.8688C20.1187 22.0375 20.4469 22.0375 20.7 21.8688L22.5375 20.65L24.375 21.8688C24.6281 22.0375 24.9562 22.0375 25.2094 21.8688L27.0469 20.65L28.8844 21.8688C29.1375 22.0375 29.4656 22.0375 29.7187 21.8688L30.8062 21.1469V46H27.8062V47.5H40.5562C40.9687 47.5 41.3062 47.1625 41.3062 46.75V19.75C41.3062 19.525 41.2031 19.3188 41.0344 19.1782L43.2562 12.5219C43.9031 10.4032 43.2094 8.0688 41.475 6.67192V6.67192ZM21.6281 16.5063C21.6937 16.6094 21.7406 16.7219 21.7687 16.8438L21.2531 17.6032L20.1094 14.7907L21.1125 13.3094C20.85 14.3875 21.0187 15.5875 21.6281 16.5063ZM16.3969 19.9282C16.5937 19.1313 16.4344 18.2969 15.975 17.6219C15.5344 16.9844 14.8312 16.5438 14.475 15.85C14.2875 15.4844 14.2125 15.0625 14.2594 14.65C14.3719 13.7313 15.0656 12.9625 15.1687 12.0438C15.2437 11.3688 14.9719 10.7125 14.8312 10.0469C14.5031 8.57505 15.4312 7.08442 17.0156 7.00942C17.7844 6.9813 18.5156 7.30942 19.0031 7.90005C19.4344 8.43442 19.6312 9.13755 20.0625 9.6813C20.3812 10.0844 20.8125 10.375 21.3 10.5157C21.7781 10.6563 22.3406 10.675 22.6594 11.0594C22.1062 11.4532 21.6562 11.9688 21.3469 12.5782L20.2781 11.8657L19.4344 13.0844L18.1406 9.92505L16.7625 10.4875L18.0469 13.6563L16.5844 13.375L16.2844 14.8375L18.6937 15.3813L19.8656 18.1375L18.4031 17.8563L18.225 18.7375C18.2156 18.7469 16.7812 19.6469 16.3969 19.9282V19.9282ZM19.0031 19.5157L20.55 19.8344L20.6531 20.0875L20.25 20.35L19.0031 19.5157ZM28.6781 19.9657L29.2594 19.5719L29.0437 20.2094L28.6781 19.9657ZM32.25 21.1469L33.3375 21.8688C33.5906 22.0375 33.9187 22.0375 34.1719 21.8688L35.2594 21.1469V41.9313L32.2594 44.9313V21.1469H32.25ZM39.75 21.1469V44.9313L36.75 41.9313V21.1469L37.8375 21.8688C38.0906 22.0375 38.4187 22.0375 38.6719 21.8688L39.75 21.1469ZM36 43.3094L38.6906 46H33.3094L36 43.3094ZM41.775 12.0438L39.225 19.6938L38.25 20.3407L36.4125 19.1219C36.1594 18.9532 35.8312 18.9532 35.5781 19.1219L33.7406 20.3407C33.7406 20.3407 31.8656 19.0938 31.8469 19.0844C31.6031 18.9532 31.3031 18.9719 31.0781 19.1219L30.9656 19.1969L34.1625 9.61567C34.5562 8.4438 35.5125 7.56255 36.7969 7.17817C38.1281 6.78442 39.525 7.02817 40.5375 7.83442C41.7844 8.84692 42.2812 10.525 41.775 12.0438V12.0438Z" fill="black"/>
<path d="M35.1127 11.5221L39.6144 10.7733L39.8604 12.2523L35.3587 13.0011L35.1127 11.5221Z" fill="black"/>
<path d="M33.6115 16.0198L38.1132 15.271L38.3592 16.75L33.8575 17.4988L33.6115 16.0198Z" fill="black"/>
<path d="M24.6094 38.5C23.7844 38.4906 22.9875 38.8188 22.4062 39.4094C22.3969 39.4 22.3875 39.3906 22.3781 39.3719L22.2562 38.875C22.2562 38.8656 22.2562 38.8656 22.2469 38.8563C21.9562 37.8344 22.5375 36.5406 23.0437 36.0344C23.2687 35.8094 23.325 35.4531 23.1844 35.1719L22.4344 33.6719C22.2469 33.2969 21.7969 33.1469 21.4312 33.3344C19.3312 34.375 18.0094 36.5219 18.0187 38.8563V39.2594C17.8406 39.1281 17.6437 39.0063 17.4469 38.8938C15.9937 38.1156 14.1094 38.6031 13.2469 39.9719C12.75 40.7688 12.6187 41.8469 12.9 42.7938L13.875 46.0469C12.5812 48.6438 9.43123 49.7031 6.83435 48.4188C4.2656 47.1438 3.19685 44.0406 4.43435 41.4531C4.4531 41.4156 4.47185 41.3781 4.4906 41.3406L4.51873 43.8906L6.01873 43.8719L5.97185 40.75L8.96248 40.8906L9.03748 39.3906L6.43123 39.2688C7.20935 38.7906 8.10935 38.5281 9.01873 38.5C10.1062 38.4719 11.175 38.7813 12.075 39.3906L12.9094 38.1438C11.2219 37.0094 9.11248 36.7 7.17185 37.2906L7.4906 36.5406L6.11248 35.95L5.08123 38.35C5.00623 38.4063 4.92185 38.4719 4.84685 38.5375L2.55935 36.25L1.49998 37.3094L3.80623 39.6156C3.75935 39.6813 3.71248 39.7469 3.6656 39.8125L1.20935 40.8625L1.79998 42.2406L2.66248 41.8656C1.62185 45.4469 3.68435 49.1875 7.2656 50.2281C9.6281 50.9125 12.1781 50.2563 13.9219 48.5125C14.1 48.3344 14.2687 48.1375 14.4281 47.9406L14.5781 48.4281C15.0375 49.9656 16.65 50.8281 18.1875 50.3688C18.4031 50.3031 18.6 50.2188 18.7969 50.1063C19.7062 50.6125 20.8125 50.6125 21.7219 50.1063C23.1094 50.9031 24.8812 50.4156 25.6781 49.0281C25.7906 48.8406 25.875 48.6344 25.9406 48.4188L27.6281 42.7844C27.7312 42.4094 27.7781 42.0156 27.7594 41.6219C27.75 39.9063 26.3437 38.5 24.6094 38.5V38.5ZM21.4406 35.0594L21.6094 35.3969C21.0187 36.2125 20.5969 37.4031 20.6719 38.5281C20.4562 38.4906 19.8656 38.4625 19.5094 38.5938C19.5844 37.1781 20.2969 35.8844 21.4406 35.0594ZM16.0125 48.0063L14.325 42.3719C14.1656 41.8375 14.2406 41.2 14.5031 40.7781C14.9344 40.0844 15.975 39.8219 16.725 40.225C17.0812 40.4125 17.2219 40.5438 17.3625 40.7219C17.2969 40.975 17.2594 41.2375 17.2594 41.5V47.5C17.2594 48.0156 17.3906 48.5219 17.6437 48.9719C16.9219 49.1219 16.2187 48.7 16.0125 48.0063ZM18.75 47.5V41.5C18.75 40.675 19.425 40 20.25 40C21.075 40 21.75 40.675 21.75 41.5V47.5C21.75 48.325 21.075 49 20.25 49C19.425 49 18.75 48.325 18.75 47.5ZM26.1844 42.3719L24.4969 48.0063C24.2906 48.7 23.5781 49.1219 22.8656 48.9719C23.1187 48.5219 23.25 48.0156 23.25 47.5V41.5C23.25 41.2656 23.2219 41.0406 23.1656 40.8156C23.3625 40.5156 23.8125 40 24.6 40C25.5094 40 26.2406 40.7406 26.2406 41.6406C26.2594 41.8844 26.2406 42.1375 26.1844 42.3719V42.3719Z" fill="black"/>
<path d="M60.14 33.5C59.58 33.5 59.12 33.33 58.76 32.99C58.42 32.63 58.25 32.19 58.25 31.67V14.33C58.25 13.81 58.42 13.38 58.76 13.04C59.12 12.68 59.56 12.5 60.08 12.5H69.83C70.35 12.5 70.78 12.67 71.12 13.01C71.48 13.33 71.66 13.75 71.66 14.27C71.66 14.71 71.48 15.1 71.12 15.44C70.78 15.78 70.35 15.95 69.83 15.95H61.73L62 15.59V21.62L61.79 21.23H68.48C69 21.23 69.43 21.4 69.77 21.74C70.13 22.06 70.31 22.48 70.31 23C70.31 23.44 70.13 23.83 69.77 24.17C69.43 24.51 69 24.68 68.48 24.68H61.73L62 24.41V31.67C62 32.19 61.81 32.63 61.43 32.99C61.07 33.33 60.64 33.5 60.14 33.5ZM77.2557 33.5C76.6957 33.5 76.1957 33.33 75.7557 32.99C75.3157 32.63 75.0957 32.19 75.0957 31.67V14.33C75.0957 13.81 75.2657 13.38 75.6057 13.04C75.9657 12.68 76.4057 12.5 76.9257 12.5H85.5657C86.6057 12.5 87.5757 12.78 88.4757 13.34C89.3957 13.88 90.1357 14.64 90.6957 15.62C91.2557 16.58 91.5357 17.69 91.5357 18.95C91.5357 19.71 91.3757 20.45 91.0557 21.17C90.7557 21.89 90.3357 22.54 89.7957 23.12C89.2757 23.7 88.6857 24.15 88.0257 24.47L88.0557 23.78C88.6157 24.08 89.0757 24.44 89.4357 24.86C89.8157 25.26 90.1057 25.7 90.3057 26.18C90.5257 26.64 90.6557 27.14 90.6957 27.68C90.7757 28.18 90.8257 28.62 90.8457 29C90.8857 29.38 90.9457 29.7 91.0257 29.96C91.1257 30.22 91.3057 30.42 91.5657 30.56C92.0057 30.82 92.2757 31.2 92.3757 31.7C92.4957 32.18 92.3857 32.61 92.0457 32.99C91.8257 33.25 91.5457 33.42 91.2057 33.5C90.8657 33.56 90.5257 33.56 90.1857 33.5C89.8457 33.42 89.5657 33.32 89.3457 33.2C89.0057 33 88.6657 32.71 88.3257 32.33C87.9857 31.93 87.7057 31.4 87.4857 30.74C87.2857 30.08 87.1857 29.23 87.1857 28.19C87.1857 27.85 87.1257 27.54 87.0057 27.26C86.8857 26.96 86.7157 26.71 86.4957 26.51C86.2757 26.29 85.9957 26.13 85.6557 26.03C85.3157 25.91 84.9157 25.85 84.4557 25.85H78.3957L78.8457 25.16V31.67C78.8457 32.19 78.7057 32.63 78.4257 32.99C78.1457 33.33 77.7557 33.5 77.2557 33.5ZM78.4257 22.76H85.4157C85.7757 22.76 86.1257 22.6 86.4657 22.28C86.8057 21.94 87.0857 21.49 87.3057 20.93C87.5257 20.35 87.6357 19.72 87.6357 19.04C87.6357 18.16 87.3957 17.43 86.9157 16.85C86.4557 16.25 85.9557 15.95 85.4157 15.95H78.4857L78.8457 14.99V23.48L78.4257 22.76ZM97.5214 12.5H107.571C108.091 12.5 108.521 12.67 108.861 13.01C109.221 13.33 109.401 13.75 109.401 14.27C109.401 14.77 109.221 15.18 108.861 15.5C108.521 15.8 108.091 15.95 107.571 15.95H99.1714L99.4414 15.44V21.29L99.2014 21.05H106.221C106.741 21.05 107.171 21.22 107.511 21.56C107.871 21.88 108.051 22.3 108.051 22.82C108.051 23.32 107.871 23.73 107.511 24.05C107.171 24.35 106.741 24.5 106.221 24.5H99.2914L99.4414 24.26V30.32L99.2014 30.05H107.571C108.091 30.05 108.521 30.23 108.861 30.59C109.221 30.93 109.401 31.33 109.401 31.79C109.401 32.29 109.221 32.7 108.861 33.02C108.521 33.34 108.091 33.5 107.571 33.5H97.5214C97.0014 33.5 96.5614 33.33 96.2014 32.99C95.8614 32.63 95.6914 32.19 95.6914 31.67V14.33C95.6914 13.81 95.8614 13.38 96.2014 13.04C96.5614 12.68 97.0014 12.5 97.5214 12.5ZM119.609 33.8C118.209 33.8 116.949 33.63 115.829 33.29C114.709 32.93 113.639 32.31 112.619 31.43C112.359 31.21 112.159 30.96 112.019 30.68C111.879 30.4 111.809 30.12 111.809 29.84C111.809 29.38 111.969 28.98 112.289 28.64C112.629 28.28 113.049 28.1 113.549 28.1C113.929 28.1 114.269 28.22 114.569 28.46C115.329 29.08 116.079 29.55 116.819 29.87C117.579 30.19 118.509 30.35 119.609 30.35C120.349 30.35 121.029 30.24 121.649 30.02C122.269 29.78 122.769 29.47 123.149 29.09C123.529 28.69 123.719 28.24 123.719 27.74C123.719 27.14 123.539 26.63 123.179 26.21C122.819 25.79 122.269 25.44 121.529 25.16C120.789 24.86 119.849 24.63 118.709 24.47C117.629 24.31 116.679 24.07 115.859 23.75C115.039 23.41 114.349 22.99 113.789 22.49C113.249 21.97 112.839 21.37 112.559 20.69C112.279 19.99 112.139 19.21 112.139 18.35C112.139 17.05 112.469 15.94 113.129 15.02C113.809 14.1 114.719 13.4 115.859 12.92C116.999 12.44 118.259 12.2 119.639 12.2C120.939 12.2 122.139 12.4 123.239 12.8C124.359 13.18 125.269 13.67 125.969 14.27C126.549 14.73 126.839 15.26 126.839 15.86C126.839 16.3 126.669 16.7 126.329 17.06C125.989 17.42 125.589 17.6 125.129 17.6C124.829 17.6 124.559 17.51 124.319 17.33C123.999 17.05 123.569 16.79 123.029 16.55C122.489 16.29 121.919 16.08 121.319 15.92C120.719 15.74 120.159 15.65 119.639 15.65C118.779 15.65 118.049 15.76 117.449 15.98C116.869 16.2 116.429 16.5 116.129 16.88C115.829 17.26 115.679 17.7 115.679 18.2C115.679 18.8 115.849 19.3 116.189 19.7C116.549 20.08 117.059 20.39 117.719 20.63C118.379 20.85 119.169 21.05 120.089 21.23C121.289 21.45 122.339 21.71 123.239 22.01C124.159 22.31 124.919 22.7 125.519 23.18C126.119 23.64 126.569 24.23 126.869 24.95C127.169 25.65 127.319 26.51 127.319 27.53C127.319 28.83 126.959 29.95 126.239 30.89C125.519 31.83 124.569 32.55 123.389 33.05C122.229 33.55 120.969 33.8 119.609 33.8ZM132.68 12.5C133.16 12.5 133.58 12.68 133.94 13.04C134.32 13.38 134.51 13.81 134.51 14.33V31.67C134.51 32.19 134.32 32.63 133.94 32.99C133.56 33.33 133.12 33.5 132.62 33.5C132.06 33.5 131.61 33.33 131.27 32.99C130.93 32.63 130.76 32.19 130.76 31.67V14.33C130.76 13.81 130.94 13.38 131.3 13.04C131.66 12.68 132.12 12.5 132.68 12.5ZM145.97 12.5C146.53 12.5 146.98 12.68 147.32 13.04C147.66 13.38 147.83 13.81 147.83 14.33V31.67C147.83 32.19 147.65 32.63 147.29 32.99C146.95 33.33 146.49 33.5 145.91 33.5C145.43 33.5 145 33.33 144.62 32.99C144.26 32.63 144.08 32.19 144.08 31.67V14.33C144.08 13.81 144.27 13.38 144.65 13.04C145.03 12.68 145.47 12.5 145.97 12.5ZM132.59 21.23H145.97V24.68H132.59V21.23Z" fill="#253D4E"/>
<path d="M65.2506 37.3C66.1892 37.3 66.9092 37.5453 67.4106 38.036C67.9226 38.516 68.1786 39.1987 68.1786 40.084C68.1786 40.5533 68.0719 40.9853 67.8586 41.38C67.6452 41.7747 67.3306 42.0893 66.9146 42.324C66.5092 42.5587 66.0079 42.6867 65.4106 42.708L65.3786 42.26C65.7519 42.26 66.1359 42.3133 66.5306 42.42C66.9252 42.5267 67.2879 42.6973 67.6186 42.932C67.9599 43.1667 68.2319 43.476 68.4346 43.86C68.6479 44.244 68.7546 44.7187 68.7546 45.284C68.7546 45.892 68.6532 46.404 68.4506 46.82C68.2479 47.2253 67.9759 47.556 67.6346 47.812C67.3039 48.0573 66.9306 48.2333 66.5146 48.34C66.1092 48.4467 65.6986 48.5 65.2826 48.5H61.0746C60.8932 48.5 60.7386 48.436 60.6106 48.308C60.4932 48.18 60.4346 48.0253 60.4346 47.844V37.94C60.4346 37.7587 60.4932 37.6093 60.6106 37.492C60.7386 37.364 60.8932 37.3 61.0746 37.3H65.2506ZM65.0586 38.564H61.6186L61.8106 38.276V42.26L61.6346 42.052H65.0906C65.5599 42.052 65.9599 41.9027 66.2906 41.604C66.6319 41.2947 66.8026 40.8413 66.8026 40.244C66.8026 39.7107 66.6479 39.3 66.3386 39.012C66.0292 38.7133 65.6026 38.564 65.0586 38.564ZM65.1866 43.332H61.6986L61.8106 43.22V47.396L61.6826 47.252H65.2346C65.8639 47.252 66.3759 47.092 66.7706 46.772C67.1759 46.452 67.3786 45.956 67.3786 45.284C67.3786 44.7613 67.2719 44.3613 67.0586 44.084C66.8452 43.796 66.5679 43.5987 66.2266 43.492C65.8959 43.3853 65.5492 43.332 65.1866 43.332ZM80.0397 38.964L76.2797 48.116C76.237 48.244 76.1624 48.3453 76.0557 48.42C75.949 48.4947 75.837 48.532 75.7197 48.532C75.517 48.532 75.3677 48.4787 75.2717 48.372C75.1757 48.2653 75.1277 48.1373 75.1277 47.988C75.117 47.9133 75.1277 47.8333 75.1597 47.748L79.3037 37.668C79.357 37.5187 79.437 37.412 79.5437 37.348C79.661 37.2733 79.789 37.2413 79.9277 37.252C80.0664 37.252 80.189 37.2893 80.2957 37.364C80.413 37.4387 80.493 37.54 80.5357 37.668L84.6637 47.652C84.6957 47.7373 84.7117 47.8227 84.7117 47.908C84.7117 48.1 84.6477 48.2547 84.5197 48.372C84.3917 48.4787 84.2477 48.532 84.0877 48.532C83.9597 48.532 83.8424 48.4947 83.7357 48.42C83.629 48.3453 83.549 48.2387 83.4957 48.1L79.6877 38.948L80.0397 38.964ZM77.0797 45.508L77.6237 44.26H82.3757L82.6157 45.508H77.0797ZM95.0086 48.66C94.2192 48.66 93.5259 48.5427 92.9286 48.308C92.3312 48.0733 91.7552 47.7 91.2006 47.188C91.1259 47.1133 91.0619 47.0333 91.0086 46.948C90.9659 46.852 90.9446 46.7507 90.9446 46.644C90.9446 46.4733 91.0032 46.324 91.1206 46.196C91.2486 46.0573 91.4032 45.988 91.5846 45.988C91.7339 45.988 91.8672 46.0467 91.9846 46.164C92.4006 46.5693 92.8486 46.8787 93.3286 47.092C93.8192 47.3053 94.3686 47.412 94.9766 47.412C95.4459 47.412 95.8672 47.3373 96.2406 47.188C96.6246 47.0387 96.9286 46.8307 97.1526 46.564C97.3766 46.2973 97.4886 45.988 97.4886 45.636C97.4779 45.2093 97.3499 44.8573 97.1046 44.58C96.8699 44.3027 96.5392 44.0733 96.1126 43.892C95.6966 43.7 95.2112 43.54 94.6566 43.412C94.1659 43.2947 93.7126 43.1507 93.2966 42.98C92.8912 42.8093 92.5392 42.6013 92.2406 42.356C91.9419 42.1 91.7072 41.796 91.5366 41.444C91.3766 41.0813 91.2966 40.66 91.2966 40.18C91.2966 39.572 91.4566 39.0387 91.7766 38.58C92.0966 38.1213 92.5392 37.7693 93.1046 37.524C93.6699 37.268 94.3206 37.14 95.0566 37.14C95.7072 37.14 96.3206 37.2467 96.8966 37.46C97.4832 37.6733 97.9526 37.9667 98.3046 38.34C98.5179 38.5427 98.6246 38.74 98.6246 38.932C98.6246 39.092 98.5552 39.2413 98.4166 39.38C98.2886 39.508 98.1392 39.572 97.9686 39.572C97.8512 39.572 97.7446 39.5293 97.6486 39.444C97.4672 39.2413 97.2379 39.06 96.9606 38.9C96.6832 38.74 96.3792 38.612 96.0486 38.516C95.7179 38.42 95.3872 38.372 95.0566 38.372C94.5659 38.372 94.1339 38.4467 93.7606 38.596C93.3872 38.7347 93.0939 38.9373 92.8806 39.204C92.6779 39.46 92.5766 39.7693 92.5766 40.132C92.5766 40.5373 92.6939 40.8733 92.9286 41.14C93.1632 41.396 93.4779 41.6093 93.8726 41.78C94.2672 41.94 94.7046 42.084 95.1846 42.212C95.7072 42.34 96.1872 42.4893 96.6246 42.66C97.0726 42.82 97.4566 43.0227 97.7766 43.268C98.0966 43.5133 98.3419 43.828 98.5126 44.212C98.6939 44.5853 98.7846 45.0493 98.7846 45.604C98.7846 46.1907 98.6192 46.7133 98.2886 47.172C97.9579 47.6307 97.5046 47.9933 96.9286 48.26C96.3632 48.516 95.7232 48.6493 95.0086 48.66ZM114.116 48.532C113.924 48.532 113.764 48.452 113.636 48.292L109.38 42.868L110.356 41.876L114.692 47.428C114.788 47.5667 114.836 47.7107 114.836 47.86C114.836 48.0733 114.756 48.2387 114.596 48.356C114.447 48.4733 114.287 48.532 114.116 48.532ZM114.068 37.284C114.239 37.284 114.377 37.3533 114.484 37.492C114.601 37.6307 114.66 37.7747 114.66 37.924C114.66 38.0733 114.596 38.212 114.468 38.34L107.396 45.028L107.284 43.54L113.556 37.524C113.716 37.364 113.887 37.284 114.068 37.284ZM106.868 48.5C106.665 48.5 106.505 48.436 106.388 48.308C106.271 48.18 106.212 48.0253 106.212 47.844V37.956C106.212 37.764 106.276 37.6093 106.404 37.492C106.532 37.364 106.692 37.3 106.884 37.3C107.087 37.3 107.247 37.364 107.364 37.492C107.481 37.6093 107.54 37.764 107.54 37.956V47.844C107.54 48.0253 107.476 48.18 107.348 48.308C107.231 48.436 107.071 48.5 106.868 48.5ZM122.835 37.3H128.531C128.713 37.3 128.867 37.3587 128.995 37.476C129.123 37.5933 129.187 37.7427 129.187 37.924C129.187 38.1053 129.123 38.2547 128.995 38.372C128.867 38.4787 128.713 38.532 128.531 38.532H123.379L123.523 38.26V42.308L123.363 42.132H127.811C127.993 42.132 128.147 42.1907 128.275 42.308C128.403 42.4253 128.467 42.5747 128.467 42.756C128.467 42.9373 128.403 43.0867 128.275 43.204C128.147 43.3107 127.993 43.364 127.811 43.364H123.411L123.523 43.22V47.364L123.427 47.252H128.531C128.713 47.252 128.867 47.316 128.995 47.444C129.123 47.572 129.187 47.716 129.187 47.876C129.187 48.0573 129.123 48.2067 128.995 48.324C128.867 48.4413 128.713 48.5 128.531 48.5H122.835C122.654 48.5 122.499 48.436 122.371 48.308C122.254 48.18 122.195 48.0253 122.195 47.844V37.94C122.195 37.7587 122.254 37.6093 122.371 37.492C122.499 37.364 122.654 37.3 122.835 37.3ZM140.072 48.5C139.88 48.5 139.72 48.436 139.592 48.308C139.464 48.18 139.4 48.0253 139.4 47.844V37.956H140.76V47.844C140.76 48.0253 140.696 48.18 140.568 48.308C140.44 48.436 140.275 48.5 140.072 48.5ZM136.36 38.516C136.179 38.516 136.024 38.4627 135.896 38.356C135.779 38.2387 135.72 38.0893 135.72 37.908C135.72 37.7267 135.779 37.5827 135.896 37.476C136.024 37.3587 136.179 37.3 136.36 37.3H143.8C143.982 37.3 144.136 37.3587 144.264 37.476C144.392 37.5827 144.456 37.7267 144.456 37.908C144.456 38.1 144.392 38.2493 144.264 38.356C144.136 38.4627 143.982 38.516 143.8 38.516H136.36Z" fill="#253D4E"/>
</svg>
