<svg width="241" height="56" viewBox="0 0 241 56" fill="none" xmlns="http://www.w3.org/2000/svg">
<path d="M16.35 29.3876C15.5531 29.6969 14.6531 29.3594 14.2593 28.6001L6.94684 14.5188C6.09371 12.8501 6.74059 10.8157 8.40934 9.96257C8.51246 9.9157 8.60621 9.86882 8.70934 9.82195C10.5937 9.06257 12.6656 10.1688 13.1906 12.0813L13.2 12.1094L17.3531 27.4001C17.5687 28.2157 17.1375 29.0782 16.35 29.3876V29.3876Z" fill="#F98500"/>
<path d="M15.9562 22.2906L13.8843 23.1063C13.5 23.2469 13.0687 23.0594 12.9093 22.675C12.7593 22.2906 12.9468 21.85 13.3312 21.7L15.5531 20.8281L15.9562 22.2906Z" fill="#FA6D00"/>
<path d="M16.7624 25.2251L14.9812 25.8907C14.5968 26.0219 14.1749 25.8438 14.0062 25.4594C13.8562 25.0751 14.0437 24.6344 14.4374 24.4844L16.3687 23.7626L16.7624 25.2251Z" fill="#FA6D00"/>
<path d="M25.1719 15.6157C24.5437 15.1844 24.225 14.4251 24.3656 13.6657C24.7125 11.922 23.5875 10.2251 21.8344 9.86883C21.8156 9.86883 21.7875 9.85945 21.7687 9.85945C21.0469 9.73758 20.4469 9.22195 20.2219 8.51883C20.1656 8.35008 20.1 8.18133 20.025 8.02195C19.2281 6.4282 17.2969 5.78133 15.7031 6.5782C14.1937 7.3282 13.5187 9.11883 14.1562 10.6751C14.4844 11.4813 14.6437 12.2126 14.0906 12.9907C13.0594 14.4438 13.4062 16.4594 14.8594 17.4813C14.8687 17.4907 14.8875 17.5001 14.8969 17.5094C15.525 17.9501 15.825 18.7188 15.675 19.4688C15.3375 21.2126 16.4812 22.9094 18.2344 23.2469C19.8094 23.5469 21.3562 22.6563 21.8906 21.1469C23.4844 21.9438 25.4156 21.2876 26.2125 19.7032C26.925 18.2688 26.4844 16.5344 25.1719 15.6157Z" fill="#598C44"/>
<path d="M32.4844 18.1938C32.0625 17.5563 32.0531 16.7313 32.4656 16.0844C33.45 14.6031 33.0375 12.5969 31.5563 11.6125C31.5375 11.6031 31.5188 11.5844 31.5 11.575C30.5813 10.9938 30.6469 10.1688 30.5719 9.22189C30.4406 7.45002 28.8844 6.11877 27.1125 6.25002C25.4344 6.38127 24.1313 7.77814 24.1313 9.46564C24.1313 10.3375 24 11.0688 23.2031 11.5844C21.7031 12.5406 21.2625 14.5375 22.2281 16.0375C22.2375 16.0469 22.2469 16.0656 22.2563 16.075C22.6688 16.7219 22.6688 17.5469 22.2375 18.1844C21.2719 19.675 21.6938 21.6719 23.1844 22.6469C24.525 23.5188 26.3063 23.275 27.3563 22.075C28.5375 23.4063 30.5719 23.5375 31.9031 22.3656C33.1031 21.3156 33.3469 19.5344 32.4844 18.1938V18.1938Z" fill="#5F9548"/>
<path d="M37.5 27.25L28.5 24.25L33.4594 9.3813C34.0594 7.59068 35.8875 6.20318 37.7906 6.25005C38.9719 6.27818 40.0781 6.50318 41.0062 7.25318C42.5062 8.45318 43.0969 10.4594 42.4875 12.2782L37.5 27.25Z" fill="#FFB531"/>
<path d="M31.5 19.75V46.75H9V19.75L11.25 21.25L13.5 19.75L15.75 21.25L18 19.75L20.25 21.25L22.5 19.75L24.75 21.25L27 19.75L29.25 21.25L31.5 19.75Z" fill="#FFB531"/>
<path d="M31.5 25.9657V46.7501H9V42.2032C17.2594 39.4282 25.4438 34.3751 31.5 25.9657Z" fill="#FCAC1F"/>
<path d="M40.5 19.75V46.75H31.5V19.75L33.75 21.25L36 19.75L38.25 21.25L40.5 19.75Z" fill="#F98500"/>
<path d="M9.14062 49.75C12.4543 49.75 15.1406 47.0637 15.1406 43.75C15.1406 40.4363 12.4543 37.75 9.14062 37.75C5.82692 37.75 3.14062 40.4363 3.14062 43.75C3.14062 47.0637 5.82692 49.75 9.14062 49.75Z" fill="#F35244"/>
<path d="M21.75 34L22.5 35.5C21.5719 36.4281 21.1969 37.7781 21.5156 39.0625L21.75 40H18.75V38.8562C18.75 36.8031 19.9125 34.9188 21.75 34Z" fill="#5F9548"/>
<path d="M17.3531 49.75C16.4062 49.75 15.5625 49.1313 15.2906 48.2219L13.6031 42.5875C13.1343 41.0219 14.1656 39.25 15.9 39.25C16.7437 39.25 17.5218 39.6906 17.9531 40.4125L19.5 43V47.6031C19.5 48.7844 18.5344 49.75 17.3531 49.75V49.75Z" fill="#FA9F0C"/>
<path d="M23.1469 49.75C24.0937 49.75 24.9375 49.1313 25.2094 48.2219L26.8969 42.5875C27.375 41.0031 26.325 39.25 24.6 39.25C23.7562 39.25 22.9781 39.6906 22.5469 40.4125L21 43V47.6031C21 48.7844 21.9656 49.75 23.1469 49.75V49.75Z" fill="#FA9F0C"/>
<path d="M20.25 39.25C21.4969 39.25 22.5 40.2531 22.5 41.5V47.5C22.5 48.7469 21.4969 49.75 20.25 49.75C19.0031 49.75 18 48.7469 18 47.5V41.5C18 40.2531 19.0031 39.25 20.25 39.25Z" fill="#FFB531"/>
<path d="M41.475 6.67192C40.0875 5.5563 38.1844 5.2188 36.375 5.7438C34.6125 6.25942 33.2906 7.5063 32.7469 9.14692L29.7187 18.2407L29.3625 17.7157L28.1062 18.55V15.5219L30.1875 14.1344L29.3531 12.8875L28.0969 13.7219V10.2813H26.5969V13.7125L25.35 12.8782L24.5156 14.125L26.5969 15.5125V18.5407L25.35 17.7063L24.5156 18.9532L25.6687 19.7219L24.7406 20.3407L22.9031 19.1219C22.8187 19.0657 22.7344 19.0282 22.6406 19.0094C22.6969 18.8688 22.7719 18.7282 22.8562 18.5969C23.4375 17.7063 23.4375 16.5625 22.8656 15.6625C22.3406 14.8657 22.3594 13.675 22.9031 12.8782C23.1375 12.5407 24.0937 11.8563 24.3469 11.5188C24.8437 10.8625 24.9 10.1125 24.9562 9.4563C24.9937 8.94067 25.0312 8.49067 25.2562 8.1438C25.9781 6.99067 27.5062 6.6438 28.6594 7.36567C28.9031 7.51567 29.1094 7.71255 29.2875 7.92817C29.6906 8.43442 29.7281 8.94067 29.775 9.62505C29.7937 9.85942 29.8125 10.1125 29.8406 10.375L31.3312 10.1875C31.3031 9.96255 31.2844 9.73755 31.275 9.52192C31.2187 8.7063 31.1531 7.87192 30.4687 7.00005C29.1094 5.27505 26.6156 4.98442 24.8906 6.33442C24.5344 6.61567 24.225 6.95317 23.9812 7.33755C23.5687 7.9938 23.5125 8.7063 23.4562 9.32505C23.4469 9.46567 23.4375 9.59692 23.4187 9.72817C22.9594 9.4188 22.4344 9.20317 21.8812 9.10005C21.4312 9.02505 21.0562 8.7063 20.9156 8.27505C20.5875 7.25317 19.875 6.40942 18.9187 5.92192C17.9812 5.42505 16.8844 5.3313 15.8719 5.65942C14.3812 6.1563 13.2937 7.55317 13.1625 9.1563C13.1156 9.76567 13.2656 10.3 13.4156 10.7782C12.7125 9.62505 11.4844 8.8938 10.1344 8.80942L10.1625 5.4813L8.66249 5.47192L8.64374 7.63755L7.74374 5.3313L6.37499 5.90317L7.27499 8.20942L5.79374 6.63442L4.70624 7.6563L6.98436 10.0938C5.74686 11.3688 5.45624 13.2813 6.28124 14.8563L7.83749 17.8563L9.16874 17.1625L7.61249 14.1625C6.94686 12.8782 7.44374 11.2938 8.72811 10.6282C10.0125 9.96255 11.5969 10.4594 12.2625 11.7438C12.3469 11.9125 12.4125 12.0813 12.4687 12.2688L12.4969 12.3625L10.0781 13.3094L10.6219 14.7063L12.8906 13.825V13.8344C12.75 14.3688 12.7125 14.9219 12.8062 15.475L11.175 16.1125L11.7187 17.5094L13.3312 16.8813C13.7062 17.5094 14.3531 18.0907 14.3531 18.0907L12.2625 18.9063L12.5062 19.5157L11.2594 20.35L9.42186 19.1313C9.07499 18.8969 8.61561 18.9907 8.38124 19.3375C8.29686 19.4594 8.25936 19.6094 8.25936 19.75V35.5H9.75936V21.1469L10.8469 21.8688C11.1 22.0375 11.4281 22.0375 11.6812 21.8688L13.5187 20.65L15.3562 21.8688C15.6094 22.0375 15.9375 22.0375 16.1906 21.8688L18.0281 20.65L19.8656 21.8688C20.1187 22.0375 20.4469 22.0375 20.7 21.8688L22.5375 20.65L24.375 21.8688C24.6281 22.0375 24.9562 22.0375 25.2094 21.8688L27.0469 20.65L28.8844 21.8688C29.1375 22.0375 29.4656 22.0375 29.7187 21.8688L30.8062 21.1469V46H27.8062V47.5H40.5562C40.9687 47.5 41.3062 47.1625 41.3062 46.75V19.75C41.3062 19.525 41.2031 19.3188 41.0344 19.1782L43.2562 12.5219C43.9031 10.4032 43.2094 8.0688 41.475 6.67192V6.67192ZM21.6281 16.5063C21.6937 16.6094 21.7406 16.7219 21.7687 16.8438L21.2531 17.6032L20.1094 14.7907L21.1125 13.3094C20.85 14.3875 21.0187 15.5875 21.6281 16.5063ZM16.3969 19.9282C16.5937 19.1313 16.4344 18.2969 15.975 17.6219C15.5344 16.9844 14.8312 16.5438 14.475 15.85C14.2875 15.4844 14.2125 15.0625 14.2594 14.65C14.3719 13.7313 15.0656 12.9625 15.1687 12.0438C15.2437 11.3688 14.9719 10.7125 14.8312 10.0469C14.5031 8.57505 15.4312 7.08442 17.0156 7.00942C17.7844 6.9813 18.5156 7.30942 19.0031 7.90005C19.4344 8.43442 19.6312 9.13755 20.0625 9.6813C20.3812 10.0844 20.8125 10.375 21.3 10.5157C21.7781 10.6563 22.3406 10.675 22.6594 11.0594C22.1062 11.4532 21.6562 11.9688 21.3469 12.5782L20.2781 11.8657L19.4344 13.0844L18.1406 9.92505L16.7625 10.4875L18.0469 13.6563L16.5844 13.375L16.2844 14.8375L18.6937 15.3813L19.8656 18.1375L18.4031 17.8563L18.225 18.7375C18.2156 18.7469 16.7812 19.6469 16.3969 19.9282V19.9282ZM19.0031 19.5157L20.55 19.8344L20.6531 20.0875L20.25 20.35L19.0031 19.5157ZM28.6781 19.9657L29.2594 19.5719L29.0437 20.2094L28.6781 19.9657ZM32.25 21.1469L33.3375 21.8688C33.5906 22.0375 33.9187 22.0375 34.1719 21.8688L35.2594 21.1469V41.9313L32.2594 44.9313V21.1469H32.25ZM39.75 21.1469V44.9313L36.75 41.9313V21.1469L37.8375 21.8688C38.0906 22.0375 38.4187 22.0375 38.6719 21.8688L39.75 21.1469ZM36 43.3094L38.6906 46H33.3094L36 43.3094ZM41.775 12.0438L39.225 19.6938L38.25 20.3407L36.4125 19.1219C36.1594 18.9532 35.8312 18.9532 35.5781 19.1219L33.7406 20.3407C33.7406 20.3407 31.8656 19.0938 31.8469 19.0844C31.6031 18.9532 31.3031 18.9719 31.0781 19.1219L30.9656 19.1969L34.1625 9.61567C34.5562 8.4438 35.5125 7.56255 36.7969 7.17817C38.1281 6.78442 39.525 7.02817 40.5375 7.83442C41.7844 8.84692 42.2812 10.525 41.775 12.0438V12.0438Z" fill="black"/>
<path d="M35.1127 11.5221L39.6144 10.7733L39.8604 12.2523L35.3587 13.0011L35.1127 11.5221Z" fill="black"/>
<path d="M33.6115 16.0198L38.1132 15.271L38.3592 16.75L33.8575 17.4988L33.6115 16.0198Z" fill="black"/>
<path d="M24.6094 38.5C23.7844 38.4906 22.9875 38.8188 22.4062 39.4094C22.3969 39.4 22.3875 39.3906 22.3781 39.3719L22.2562 38.875C22.2562 38.8656 22.2562 38.8656 22.2469 38.8563C21.9562 37.8344 22.5375 36.5406 23.0437 36.0344C23.2687 35.8094 23.325 35.4531 23.1844 35.1719L22.4344 33.6719C22.2469 33.2969 21.7969 33.1469 21.4312 33.3344C19.3312 34.375 18.0094 36.5219 18.0187 38.8563V39.2594C17.8406 39.1281 17.6437 39.0063 17.4469 38.8938C15.9937 38.1156 14.1094 38.6031 13.2469 39.9719C12.75 40.7688 12.6187 41.8469 12.9 42.7938L13.875 46.0469C12.5812 48.6438 9.43123 49.7031 6.83435 48.4188C4.2656 47.1438 3.19685 44.0406 4.43435 41.4531C4.4531 41.4156 4.47185 41.3781 4.4906 41.3406L4.51873 43.8906L6.01873 43.8719L5.97185 40.75L8.96248 40.8906L9.03748 39.3906L6.43123 39.2688C7.20935 38.7906 8.10935 38.5281 9.01873 38.5C10.1062 38.4719 11.175 38.7813 12.075 39.3906L12.9094 38.1438C11.2219 37.0094 9.11248 36.7 7.17185 37.2906L7.4906 36.5406L6.11248 35.95L5.08123 38.35C5.00623 38.4063 4.92185 38.4719 4.84685 38.5375L2.55935 36.25L1.49998 37.3094L3.80623 39.6156C3.75935 39.6813 3.71248 39.7469 3.6656 39.8125L1.20935 40.8625L1.79998 42.2406L2.66248 41.8656C1.62185 45.4469 3.68435 49.1875 7.2656 50.2281C9.6281 50.9125 12.1781 50.2563 13.9219 48.5125C14.1 48.3344 14.2687 48.1375 14.4281 47.9406L14.5781 48.4281C15.0375 49.9656 16.65 50.8281 18.1875 50.3688C18.4031 50.3031 18.6 50.2188 18.7969 50.1063C19.7062 50.6125 20.8125 50.6125 21.7219 50.1063C23.1094 50.9031 24.8812 50.4156 25.6781 49.0281C25.7906 48.8406 25.875 48.6344 25.9406 48.4188L27.6281 42.7844C27.7312 42.4094 27.7781 42.0156 27.7594 41.6219C27.75 39.9063 26.3437 38.5 24.6094 38.5V38.5ZM21.4406 35.0594L21.6094 35.3969C21.0187 36.2125 20.5969 37.4031 20.6719 38.5281C20.4562 38.4906 19.8656 38.4625 19.5094 38.5938C19.5844 37.1781 20.2969 35.8844 21.4406 35.0594ZM16.0125 48.0063L14.325 42.3719C14.1656 41.8375 14.2406 41.2 14.5031 40.7781C14.9344 40.0844 15.975 39.8219 16.725 40.225C17.0812 40.4125 17.2219 40.5438 17.3625 40.7219C17.2969 40.975 17.2594 41.2375 17.2594 41.5V47.5C17.2594 48.0156 17.3906 48.5219 17.6437 48.9719C16.9219 49.1219 16.2187 48.7 16.0125 48.0063ZM18.75 47.5V41.5C18.75 40.675 19.425 40 20.25 40C21.075 40 21.75 40.675 21.75 41.5V47.5C21.75 48.325 21.075 49 20.25 49C19.425 49 18.75 48.325 18.75 47.5ZM26.1844 42.3719L24.4969 48.0063C24.2906 48.7 23.5781 49.1219 22.8656 48.9719C23.1187 48.5219 23.25 48.0156 23.25 47.5V41.5C23.25 41.2656 23.2219 41.0406 23.1656 40.8156C23.3625 40.5156 23.8125 40 24.6 40C25.5094 40 26.2406 40.7406 26.2406 41.6406C26.2594 41.8844 26.2406 42.1375 26.1844 42.3719V42.3719Z" fill="black"/>
<path d="M60.14 40.5C59.58 40.5 59.12 40.33 58.76 39.99C58.42 39.63 58.25 39.19 58.25 38.67V21.33C58.25 20.81 58.42 20.38 58.76 20.04C59.12 19.68 59.56 19.5 60.08 19.5H69.83C70.35 19.5 70.78 19.67 71.12 20.01C71.48 20.33 71.66 20.75 71.66 21.27C71.66 21.71 71.48 22.1 71.12 22.44C70.78 22.78 70.35 22.95 69.83 22.95H61.73L62 22.59V28.62L61.79 28.23H68.48C69 28.23 69.43 28.4 69.77 28.74C70.13 29.06 70.31 29.48 70.31 30C70.31 30.44 70.13 30.83 69.77 31.17C69.43 31.51 69 31.68 68.48 31.68H61.73L62 31.41V38.67C62 39.19 61.81 39.63 61.43 39.99C61.07 40.33 60.64 40.5 60.14 40.5ZM76.332 40.5C75.812 40.5 75.382 40.33 75.042 39.99C74.702 39.63 74.532 39.19 74.532 38.67V26.28C74.532 25.76 74.702 25.33 75.042 24.99C75.382 24.63 75.812 24.45 76.332 24.45C76.852 24.45 77.282 24.63 77.622 24.99C77.962 25.33 78.132 25.76 78.132 26.28V29.1L77.922 27.09C78.142 26.61 78.422 26.19 78.762 25.83C79.122 25.45 79.522 25.14 79.962 24.9C80.402 24.64 80.872 24.45 81.372 24.33C81.872 24.21 82.372 24.15 82.872 24.15C83.472 24.15 83.972 24.32 84.372 24.66C84.792 25 85.002 25.4 85.002 25.86C85.002 26.52 84.832 27 84.492 27.3C84.152 27.58 83.782 27.72 83.382 27.72C83.002 27.72 82.652 27.65 82.332 27.51C82.032 27.37 81.682 27.3 81.282 27.3C80.922 27.3 80.552 27.39 80.172 27.57C79.812 27.73 79.472 27.99 79.152 28.35C78.852 28.71 78.602 29.16 78.402 29.7C78.222 30.22 78.132 30.84 78.132 31.56V38.67C78.132 39.19 77.962 39.63 77.622 39.99C77.282 40.33 76.852 40.5 76.332 40.5ZM94.426 40.8C92.726 40.8 91.246 40.45 89.986 39.75C88.746 39.03 87.786 38.06 87.106 36.84C86.446 35.62 86.116 34.24 86.116 32.7C86.116 30.9 86.476 29.37 87.196 28.11C87.936 26.83 88.896 25.85 90.076 25.17C91.256 24.49 92.506 24.15 93.826 24.15C94.846 24.15 95.806 24.36 96.706 24.78C97.626 25.2 98.436 25.78 99.136 26.52C99.836 27.24 100.386 28.08 100.786 29.04C101.206 30 101.416 31.02 101.416 32.1C101.396 32.58 101.206 32.97 100.846 33.27C100.486 33.57 100.066 33.72 99.586 33.72H88.126L87.226 30.72H98.236L97.576 31.32V30.51C97.536 29.93 97.326 29.41 96.946 28.95C96.586 28.49 96.126 28.13 95.566 27.87C95.026 27.59 94.446 27.45 93.826 27.45C93.226 27.45 92.666 27.53 92.146 27.69C91.626 27.85 91.176 28.12 90.796 28.5C90.416 28.88 90.116 29.39 89.896 30.03C89.676 30.67 89.566 31.48 89.566 32.46C89.566 33.54 89.786 34.46 90.226 35.22C90.686 35.96 91.266 36.53 91.966 36.93C92.686 37.31 93.446 37.5 94.246 37.5C94.986 37.5 95.576 37.44 96.016 37.32C96.456 37.2 96.806 37.06 97.066 36.9C97.346 36.72 97.596 36.57 97.816 36.45C98.176 36.27 98.516 36.18 98.836 36.18C99.276 36.18 99.636 36.33 99.916 36.63C100.216 36.93 100.366 37.28 100.366 37.68C100.366 38.22 100.086 38.71 99.526 39.15C99.006 39.59 98.276 39.98 97.336 40.32C96.396 40.64 95.426 40.8 94.426 40.8ZM103.631 38.01C103.431 37.73 103.341 37.37 103.361 36.93C103.381 36.49 103.641 36.11 104.141 35.79C104.461 35.59 104.801 35.51 105.161 35.55C105.521 35.57 105.871 35.75 106.211 36.09C106.791 36.67 107.401 37.12 108.041 37.44C108.681 37.76 109.481 37.92 110.441 37.92C110.741 37.9 111.071 37.86 111.431 37.8C111.791 37.72 112.101 37.56 112.361 37.32C112.641 37.06 112.781 36.67 112.781 36.15C112.781 35.71 112.631 35.36 112.331 35.1C112.031 34.84 111.631 34.62 111.131 34.44C110.651 34.26 110.111 34.09 109.511 33.93C108.891 33.75 108.251 33.55 107.591 33.33C106.951 33.11 106.361 32.83 105.821 32.49C105.281 32.13 104.841 31.66 104.501 31.08C104.161 30.5 103.991 29.77 103.991 28.89C103.991 27.89 104.271 27.04 104.831 26.34C105.391 25.64 106.111 25.1 106.991 24.72C107.891 24.34 108.831 24.15 109.811 24.15C110.431 24.15 111.081 24.23 111.761 24.39C112.441 24.53 113.091 24.77 113.711 25.11C114.331 25.43 114.851 25.86 115.271 26.4C115.491 26.7 115.621 27.06 115.661 27.48C115.701 27.9 115.511 28.28 115.091 28.62C114.791 28.86 114.441 28.97 114.041 28.95C113.641 28.91 113.311 28.77 113.051 28.53C112.711 28.09 112.251 27.74 111.671 27.48C111.111 27.22 110.461 27.09 109.721 27.09C109.421 27.09 109.091 27.13 108.731 27.21C108.391 27.27 108.091 27.42 107.831 27.66C107.571 27.88 107.441 28.24 107.441 28.74C107.441 29.2 107.591 29.57 107.891 29.85C108.191 30.11 108.591 30.33 109.091 30.51C109.611 30.67 110.161 30.83 110.741 30.99C111.341 31.15 111.951 31.34 112.571 31.56C113.191 31.78 113.761 32.07 114.281 32.43C114.801 32.79 115.221 33.26 115.541 33.84C115.861 34.4 116.021 35.12 116.021 36C116.021 37.02 115.721 37.89 115.121 38.61C114.521 39.33 113.771 39.88 112.871 40.26C111.971 40.62 111.051 40.8 110.111 40.8C108.931 40.8 107.751 40.6 106.571 40.2C105.391 39.78 104.411 39.05 103.631 38.01ZM127.464 24.15C128.904 24.15 129.994 24.46 130.734 25.08C131.494 25.7 132.014 26.53 132.294 27.57C132.574 28.59 132.714 29.73 132.714 30.99V38.67C132.714 39.19 132.544 39.63 132.204 39.99C131.864 40.33 131.434 40.5 130.914 40.5C130.394 40.5 129.964 40.33 129.624 39.99C129.284 39.63 129.114 39.19 129.114 38.67V30.99C129.114 30.33 129.034 29.74 128.874 29.22C128.714 28.68 128.424 28.25 128.004 27.93C127.584 27.61 126.984 27.45 126.204 27.45C125.444 27.45 124.794 27.61 124.254 27.93C123.714 28.25 123.304 28.68 123.024 29.22C122.764 29.74 122.634 30.33 122.634 30.99V38.67C122.634 39.19 122.464 39.63 122.124 39.99C121.784 40.33 121.354 40.5 120.834 40.5C120.314 40.5 119.884 40.33 119.544 39.99C119.204 39.63 119.034 39.19 119.034 38.67V20.13C119.034 19.61 119.204 19.18 119.544 18.84C119.884 18.48 120.314 18.3 120.834 18.3C121.354 18.3 121.784 18.48 122.124 18.84C122.464 19.18 122.634 19.61 122.634 20.13V27.57L122.184 27.48C122.364 27.14 122.614 26.78 122.934 26.4C123.254 26 123.644 25.63 124.104 25.29C124.564 24.95 125.074 24.68 125.634 24.48C126.194 24.26 126.804 24.15 127.464 24.15ZM146.302 19.5C148.222 19.5 149.652 19.95 150.592 20.85C151.532 21.75 152.002 23.08 152.002 24.84C152.002 25.78 151.772 26.61 151.312 27.33C150.852 28.03 150.172 28.58 149.272 28.98C148.372 29.36 147.262 29.55 145.942 29.55L146.062 28.2C146.682 28.2 147.392 28.29 148.192 28.47C148.992 28.63 149.762 28.93 150.502 29.37C151.262 29.79 151.882 30.39 152.362 31.17C152.862 31.93 153.112 32.91 153.112 34.11C153.112 35.43 152.892 36.51 152.452 37.35C152.032 38.19 151.472 38.84 150.772 39.3C150.072 39.76 149.322 40.08 148.522 40.26C147.722 40.42 146.952 40.5 146.212 40.5H138.742C138.222 40.5 137.782 40.33 137.422 39.99C137.082 39.63 136.912 39.19 136.912 38.67V21.33C136.912 20.81 137.082 20.38 137.422 20.04C137.782 19.68 138.222 19.5 138.742 19.5H146.302ZM145.762 23.04H140.422L140.812 22.56V27.99L140.452 27.72H145.852C146.432 27.72 146.952 27.53 147.412 27.15C147.872 26.77 148.102 26.22 148.102 25.5C148.102 24.64 147.882 24.02 147.442 23.64C147.022 23.24 146.462 23.04 145.762 23.04ZM146.002 31.26H140.542L140.812 31.02V37.35L140.512 37.05H146.212C147.132 37.05 147.862 36.81 148.402 36.33C148.942 35.83 149.212 35.09 149.212 34.11C149.212 33.21 149.032 32.56 148.672 32.16C148.312 31.76 147.882 31.51 147.382 31.41C146.882 31.31 146.422 31.26 146.002 31.26ZM169.41 24.15C169.93 24.15 170.36 24.32 170.7 24.66C171.04 25 171.21 25.44 171.21 25.98V38.67C171.21 39.19 171.04 39.63 170.7 39.99C170.36 40.33 169.93 40.5 169.41 40.5C168.89 40.5 168.46 40.33 168.12 39.99C167.78 39.63 167.61 39.19 167.61 38.67V37.2L168.27 37.47C168.27 37.73 168.13 38.05 167.85 38.43C167.57 38.79 167.19 39.15 166.71 39.51C166.23 39.87 165.66 40.18 165 40.44C164.36 40.68 163.66 40.8 162.9 40.8C161.52 40.8 160.27 40.45 159.15 39.75C158.03 39.03 157.14 38.05 156.48 36.81C155.84 35.55 155.52 34.11 155.52 32.49C155.52 30.85 155.84 29.41 156.48 28.17C157.14 26.91 158.02 25.93 159.12 25.23C160.22 24.51 161.44 24.15 162.78 24.15C163.64 24.15 164.43 24.28 165.15 24.54C165.87 24.8 166.49 25.13 167.01 25.53C167.55 25.93 167.96 26.34 168.24 26.76C168.54 27.16 168.69 27.5 168.69 27.78L167.61 28.17V25.98C167.61 25.46 167.78 25.03 168.12 24.69C168.46 24.33 168.89 24.15 169.41 24.15ZM163.35 37.5C164.23 37.5 165 37.28 165.66 36.84C166.32 36.4 166.83 35.8 167.19 35.04C167.57 34.28 167.76 33.43 167.76 32.49C167.76 31.53 167.57 30.67 167.19 29.91C166.83 29.15 166.32 28.55 165.66 28.11C165 27.67 164.23 27.45 163.35 27.45C162.49 27.45 161.73 27.67 161.07 28.11C160.41 28.55 159.89 29.15 159.51 29.91C159.15 30.67 158.97 31.53 158.97 32.49C158.97 33.43 159.15 34.28 159.51 35.04C159.89 35.8 160.41 36.4 161.07 36.84C161.73 37.28 162.49 37.5 163.35 37.5ZM174.178 38.01C173.978 37.73 173.888 37.37 173.908 36.93C173.928 36.49 174.188 36.11 174.688 35.79C175.008 35.59 175.348 35.51 175.708 35.55C176.068 35.57 176.418 35.75 176.758 36.09C177.338 36.67 177.948 37.12 178.588 37.44C179.228 37.76 180.028 37.92 180.988 37.92C181.288 37.9 181.618 37.86 181.978 37.8C182.338 37.72 182.648 37.56 182.908 37.32C183.188 37.06 183.328 36.67 183.328 36.15C183.328 35.71 183.178 35.36 182.878 35.1C182.578 34.84 182.178 34.62 181.678 34.44C181.198 34.26 180.658 34.09 180.058 33.93C179.438 33.75 178.798 33.55 178.138 33.33C177.498 33.11 176.908 32.83 176.368 32.49C175.828 32.13 175.388 31.66 175.048 31.08C174.708 30.5 174.538 29.77 174.538 28.89C174.538 27.89 174.818 27.04 175.378 26.34C175.938 25.64 176.658 25.1 177.538 24.72C178.438 24.34 179.378 24.15 180.358 24.15C180.978 24.15 181.628 24.23 182.308 24.39C182.988 24.53 183.638 24.77 184.258 25.11C184.878 25.43 185.398 25.86 185.818 26.4C186.038 26.7 186.168 27.06 186.208 27.48C186.248 27.9 186.058 28.28 185.638 28.62C185.338 28.86 184.988 28.97 184.588 28.95C184.188 28.91 183.858 28.77 183.598 28.53C183.258 28.09 182.798 27.74 182.218 27.48C181.658 27.22 181.008 27.09 180.268 27.09C179.968 27.09 179.638 27.13 179.278 27.21C178.938 27.27 178.638 27.42 178.378 27.66C178.118 27.88 177.988 28.24 177.988 28.74C177.988 29.2 178.138 29.57 178.438 29.85C178.738 30.11 179.138 30.33 179.638 30.51C180.158 30.67 180.708 30.83 181.288 30.99C181.888 31.15 182.498 31.34 183.118 31.56C183.738 31.78 184.308 32.07 184.828 32.43C185.348 32.79 185.768 33.26 186.088 33.84C186.408 34.4 186.568 35.12 186.568 36C186.568 37.02 186.268 37.89 185.668 38.61C185.068 39.33 184.318 39.88 183.418 40.26C182.518 40.62 181.598 40.8 180.658 40.8C179.478 40.8 178.298 40.6 177.118 40.2C175.938 39.78 174.958 39.05 174.178 38.01ZM191.681 40.5C191.161 40.5 190.731 40.33 190.391 39.99C190.051 39.63 189.881 39.19 189.881 38.67V20.13C189.881 19.61 190.051 19.18 190.391 18.84C190.731 18.48 191.161 18.3 191.681 18.3C192.201 18.3 192.631 18.48 192.971 18.84C193.311 19.18 193.481 19.61 193.481 20.13V38.67C193.481 39.19 193.311 39.63 192.971 39.99C192.631 40.33 192.201 40.5 191.681 40.5ZM201.221 24.45C201.681 24.45 202.081 24.64 202.421 25.02C202.761 25.4 202.931 25.77 202.931 26.13C202.931 26.61 202.691 27.06 202.211 27.48L193.181 35.79L193.031 31.65L199.901 25.02C200.281 24.64 200.721 24.45 201.221 24.45ZM201.671 40.47C201.151 40.47 200.711 40.27 200.351 39.87L194.801 33.99L197.531 31.47L202.931 37.35C203.311 37.75 203.501 38.2 203.501 38.7C203.501 39.22 203.291 39.65 202.871 39.99C202.471 40.31 202.071 40.47 201.671 40.47ZM213.547 40.8C211.847 40.8 210.367 40.45 209.107 39.75C207.867 39.03 206.907 38.06 206.227 36.84C205.567 35.62 205.237 34.24 205.237 32.7C205.237 30.9 205.597 29.37 206.317 28.11C207.057 26.83 208.017 25.85 209.197 25.17C210.377 24.49 211.627 24.15 212.947 24.15C213.967 24.15 214.927 24.36 215.827 24.78C216.747 25.2 217.557 25.78 218.257 26.52C218.957 27.24 219.507 28.08 219.907 29.04C220.327 30 220.537 31.02 220.537 32.1C220.517 32.58 220.327 32.97 219.967 33.27C219.607 33.57 219.187 33.72 218.707 33.72H207.247L206.347 30.72H217.357L216.697 31.32V30.51C216.657 29.93 216.447 29.41 216.067 28.95C215.707 28.49 215.247 28.13 214.687 27.87C214.147 27.59 213.567 27.45 212.947 27.45C212.347 27.45 211.787 27.53 211.267 27.69C210.747 27.85 210.297 28.12 209.917 28.5C209.537 28.88 209.237 29.39 209.017 30.03C208.797 30.67 208.687 31.48 208.687 32.46C208.687 33.54 208.907 34.46 209.347 35.22C209.807 35.96 210.387 36.53 211.087 36.93C211.807 37.31 212.567 37.5 213.367 37.5C214.107 37.5 214.697 37.44 215.137 37.32C215.577 37.2 215.927 37.06 216.187 36.9C216.467 36.72 216.717 36.57 216.937 36.45C217.297 36.27 217.637 36.18 217.957 36.18C218.397 36.18 218.757 36.33 219.037 36.63C219.337 36.93 219.487 37.28 219.487 37.68C219.487 38.22 219.207 38.71 218.647 39.15C218.127 39.59 217.397 39.98 216.457 40.32C215.517 40.64 214.547 40.8 213.547 40.8ZM223.862 24.75H230.972C231.452 24.75 231.852 24.91 232.172 25.23C232.492 25.55 232.652 25.95 232.652 26.43C232.652 26.89 232.492 27.28 232.172 27.6C231.852 27.9 231.452 28.05 230.972 28.05H223.862C223.382 28.05 222.982 27.89 222.662 27.57C222.342 27.25 222.182 26.85 222.182 26.37C222.182 25.91 222.342 25.53 222.662 25.23C222.982 24.91 223.382 24.75 223.862 24.75ZM227.072 21C227.592 21 228.012 21.18 228.332 21.54C228.672 21.88 228.842 22.31 228.842 22.83V36.18C228.842 36.46 228.892 36.69 228.992 36.87C229.112 37.05 229.262 37.18 229.442 37.26C229.642 37.34 229.852 37.38 230.072 37.38C230.312 37.38 230.532 37.34 230.732 37.26C230.932 37.16 231.162 37.11 231.422 37.11C231.702 37.11 231.952 37.24 232.172 37.5C232.412 37.76 232.532 38.12 232.532 38.58C232.532 39.14 232.222 39.6 231.602 39.96C231.002 40.32 230.352 40.5 229.652 40.5C229.232 40.5 228.762 40.47 228.242 40.41C227.742 40.33 227.262 40.16 226.802 39.9C226.362 39.62 225.992 39.2 225.692 38.64C225.392 38.08 225.242 37.31 225.242 36.33V22.83C225.242 22.31 225.412 21.88 225.752 21.54C226.112 21.18 226.552 21 227.072 21Z" fill="white"/>
</svg>
